Coordinates
version=1
nRows=32
nColumns=12
inDegrees=yes

Units are S.I. units (second, meters, Newtons, ...)
Angles are in degrees

endheader
time	SC_y	SC_z	SC_x	AC_y	AC_z	AC_x	GH_y	GH_z	GH_yy	EL_x	PS_y
       0.0              -57.67          6.193          79.71          43.31          1.135         -13.37          61.42          57.35          75.22          57.25          92.82
   0.02919              -57.67          6.197           79.7          43.32          1.135         -13.37          61.43          57.35           75.2          57.24          92.81
   0.05839              -57.66            6.2           79.7          43.32          1.136         -13.36          61.43          57.34          75.18          57.24          92.81
   0.08758              -57.66          6.204          79.69          43.32          1.137         -13.36          61.44          57.34          75.15          57.23           92.8
    0.1168              -57.65          6.208          79.68          43.32          1.137         -13.36          61.45          57.34          75.13          57.23          92.79
     0.146              -57.65          6.213          79.68          43.33          1.138         -13.35          61.45          57.34           75.1          57.22          92.78
    0.1752              -57.64          6.217          79.67          43.33          1.139         -13.35          61.46          57.33          75.07          57.22          92.77
    0.2044              -57.64          6.222          79.66          43.33          1.139         -13.35          61.47          57.33          75.04          57.21          92.76
    0.2336              -57.63          6.228          79.66          43.34           1.14         -13.34          61.48          57.33          75.01          57.21          92.75
    0.2628              -57.62          6.234          79.65          43.34          1.141         -13.34          61.49          57.33          74.97           57.2          92.74
    0.2919              -57.61           6.24          79.64          43.35          1.142         -13.34           61.5          57.32          74.93          57.19          92.72
    0.3211              -57.61          6.246          79.63          43.35          1.143         -13.33          61.52          57.32          74.89          57.18          92.71
    0.3503               -57.6          6.254          79.62          43.35          1.144         -13.32          61.53          57.31          74.85          57.17          92.69
    0.3795              -57.59          6.261          79.61          43.36          1.145         -13.32          61.54          57.31           74.8          57.16          92.68
    0.4087              -57.58           6.27           79.6          43.37          1.147         -13.31          61.56          57.31          74.75          57.15          92.66
    0.4379              -57.57          6.279          79.58          43.37          1.148         -13.31          61.57           57.3          74.69          57.14          92.64
    0.4671              -57.55          6.289          79.57          43.38           1.15          -13.3          61.59          57.29          74.63          57.13          92.62
    0.4963              -57.54          6.299          79.56          43.39          1.151         -13.29          61.61          57.29          74.56          57.12           92.6
    0.5255              -57.53          6.311          79.54          43.39          1.153         -13.28          61.63          57.28          74.49           57.1          92.57
    0.5547              -57.51          6.324          79.52           43.4          1.155         -13.27          61.66          57.27          74.41          57.09          92.54
    0.5839              -57.49          6.338           79.5          43.41          1.157         -13.26          61.68          57.27          74.32          57.07          92.51
    0.6131              -57.47          6.354          79.48          43.42           1.16         -13.25          61.71          57.26          74.22          57.05          92.48
    0.6423              -57.45          6.371          79.46          43.43          1.162         -13.24          61.74          57.25          74.12          57.03          92.44
    0.6715              -57.43           6.39          79.43          43.45          1.165         -13.22          61.78          57.24           74.0          57.01           92.4
    0.7007               -57.4          6.411           79.4          43.46          1.168         -13.21          61.81          57.23          73.87          56.98          92.36
    0.7299              -57.37          6.435          79.37          43.48          1.172         -13.19          61.86          57.21          73.72          56.95          92.31
    0.7591              -57.34          6.461          79.33          43.49          1.176         -13.17           61.9           57.2          73.56          56.92          92.25
    0.7883               -57.3          6.491          79.29          43.51          1.181         -13.15          61.96          57.18          73.37          56.88          92.19
    0.8175              -57.26          6.525          79.24          43.54          1.186         -13.12          62.02          57.16          73.16          56.84          92.12
    0.8467              -57.21          6.563          79.18          43.56          1.192          -13.1          62.09          57.14          72.92           56.8          92.04
    0.8758              -57.16          6.607          79.12          43.59          1.198         -13.06          62.17          57.12          72.65          56.74          91.94
     0.905               -57.1          6.657          79.05          43.63          1.206         -13.03          62.26          57.09          72.34          56.68          91.84
